# xmcd
# 
# Track frame offsets:
#     150
#     13222
#     26112
#     43427
#     58852
#     76700
#     92855
#     108080
#     122795
#     136040
#     147847
#     160080
#     175137
#     190380
# 
# Disc length: 2728
# 
# Revision: 2
# Processed by: cddbd v1.5.2PL0 Copyright (c) Steve Scherf et al.
# Submitted via: BonkEnc v1.0.6
# 
DISCID=bd0aa60e
DTITLE=Trio Parada Dura - Trio Parada Dura
DYEAR=0
DGENRE=
TTITLE0=Sempre
TTITLE1=No Embalo do Arrasta Pé
TTITLE2=Último Adeus
TTITLE3=Toda Noite eu Dava Uma
TTITLE4=Luz da Minha Vida
TTITLE5=Desfile de Bravos
TTITLE6=Telefone Mudo
TTITLE7=Senzala de Preto Velho
TTITLE8=As Andorinhas
TTITLE9=Golpe da Gemedeira
TTITLE10=Avião das Nove
TTITLE11=Hino de Reis
TTITLE12=Blusa Vermelha
TTITLE13=Barco de Papel
EXTD=
EXTT0=
EXTT1=
EXTT2=
EXTT3=
EXTT4=
EXTT5=
EXTT6=
EXTT7=
EXTT8=
EXTT9=
EXTT10=
EXTT11=
EXTT12=
EXTT13=
PLAYORDER=
